<?xml version="1.0" standalone="no"?><!DOCTYPE svg PUBLIC "-//W3C//DTD SVG 1.1//EN"
        "http://www.w3.org/Graphics/SVG/1.1/DTD/svg11.dtd">
<svg t="1741439721916" class="icon" viewBox="0 0 1024 1024" version="1.1" xmlns="http://www.w3.org/2000/svg"
     p-id="4232" width="200" height="200">
    <path d="M823.466667 371.2c0-85.333333-72.533333-153.6-153.6-153.6h-384C302.933333 170.666667 345.6 140.8 396.8 140.8h273.066667c128 0 234.666667 102.4 234.666666 234.666667v273.066666c0 51.2-29.866667 93.866667-76.8 110.933334V371.2zM238.933333 917.333333c-59.733333 0-115.2-55.466667-115.2-115.2V409.6c0-59.733333 51.2-115.2 115.2-115.2h392.533334c59.733333 0 115.2 51.2 115.2 115.2v392.533333c0 59.733333-51.2 115.2-115.2 115.2H238.933333z m388.266667-76.8c21.333333 0 38.4-17.066667 38.4-38.4V413.866667c0-21.333333-17.066667-38.4-38.4-38.4H238.933333c-21.333333 0-38.4 17.066667-38.4 38.4v388.266666c0 21.333333 17.066667 38.4 38.4 38.4h388.266667z"
          p-id="4233"></path>
</svg>