<?xml version="1.0" standalone="no"?><!DOCTYPE svg PUBLIC "-//W3C//DTD SVG 1.1//EN"
        "http://www.w3.org/Graphics/SVG/1.1/DTD/svg11.dtd">
<svg t="1741425077563" class="icon" viewBox="0 0 1024 1024" version="1.1"
     xmlns="http://www.w3.org/2000/svg" p-id="10072" width="200" height="200">
    <path d="M512 567.466667l-337.066667 337.066666c-8.533333 8.533333-17.066667 12.8-29.866666 12.8-21.333333 0-42.666667-17.066667-42.666667-42.666666 0-12.8 4.266667-21.333333 12.8-29.866667l337.066667-337.066667-332.8-332.8c-8.533333-8.533333-12.8-17.066667-12.8-29.866666 0-21.333333 17.066667-38.4 42.666666-38.4 12.8 0 21.333333 4.266667 29.866667 12.8l337.066667 337.066666L853.333333 119.466667c8.533333-8.533333 17.066667-12.8 29.866667-12.8 21.333333 0 38.4 17.066667 38.4 38.4 0 12.8-4.266667 21.333333-12.8 29.866666l-341.333333 337.066667 337.066666 337.066667c8.533333 8.533333 12.8 17.066667 12.8 29.866666 0 21.333333-17.066667 42.666667-38.4 42.666667-12.8 0-21.333333-4.266667-29.866666-12.8l-337.066667-341.333333z"
          p-id="10073"></path>
</svg>