<?xml version="1.0" standalone="no"?><!DOCTYPE svg PUBLIC "-//W3C//DTD SVG 1.1//EN"
        "http://www.w3.org/Graphics/SVG/1.1/DTD/svg11.dtd">
<svg t="1741425028518" class="icon" viewBox="0 0 1024 1024" version="1.1" xmlns="http://www.w3.org/2000/svg"
     p-id="5953" width="200" height="200">
    <path d="M226.133333 917.333333c-64 0-119.466667-55.466667-119.466666-119.466666V226.133333c0-64 55.466667-119.466667 119.466666-119.466666h571.733334c64 0 119.466667 55.466667 119.466666 119.466666v571.733334c0 64-55.466667 119.466667-119.466666 119.466666H226.133333z m567.466667-81.066666c21.333333 0 38.4-17.066667 38.4-38.4V230.4c0-21.333333-17.066667-38.4-38.4-38.4H230.4c-21.333333 0-38.4 17.066667-38.4 38.4v567.466667c0 21.333333 17.066667 38.4 38.4 38.4h563.2z"
          p-id="5954"></path>
</svg>